<svg width="16" height="16" viewBox="0 0 16 16" fill="none" xmlns="http://www.w3.org/2000/svg">
<path d="M4.91396 12.7425L5.41396 10.7425C5.57175 10.1114 5.09439 9.49999 4.44382 9.49999H2.50538C2.04651 9.49999 1.64652 9.81229 1.53523 10.2575L1.03523 12.2575C0.877446 12.8886 1.3548 13.5 2.00538 13.5H3.94382C4.40269 13.5 4.80267 13.1877 4.91396 12.7425Z" stroke="white" stroke-width="1.3" stroke-linecap="round"/>
<path d="M5.91396 6.74253L6.41396 4.74253C6.57175 4.11138 6.09439 3.49999 5.44382 3.49999H3.50538C3.04651 3.49999 2.64652 3.81229 2.53523 4.25746L2.03523 6.25746C1.87745 6.8886 2.3548 7.49999 3.00538 7.49999H4.94382C5.40269 7.49999 5.80267 7.1877 5.91396 6.74253Z" stroke="white" stroke-width="1.3" stroke-linecap="round"/>
<path d="M10.914 12.7425L11.414 10.7425C11.5718 10.1114 11.0944 9.49999 10.4438 9.49999H8.50538C8.04651 9.49999 7.64652 9.81229 7.53523 10.2575L7.03523 12.2575C6.87745 12.8886 7.3548 13.5 8.00538 13.5H9.94382C10.4027 13.5 10.8027 13.1877 10.914 12.7425Z" stroke="white" stroke-width="1.3" stroke-linecap="round"/>
<path d="M12.2342 5.46715L11.5287 7.1133C11.4248 7.35573 11.0811 7.35573 10.9772 7.1133L10.2717 5.46715C10.2414 5.39635 10.185 5.33993 10.1141 5.30958L8.468 4.60409C8.22557 4.50019 8.22557 4.1565 8.468 4.0526L10.1141 3.34711C10.185 3.31677 10.2414 3.26035 10.2717 3.18954L10.9772 1.5434C11.0811 1.30096 11.4248 1.30096 11.5287 1.5434L12.2342 3.18954C12.2645 3.26035 12.3209 3.31677 12.3918 3.34711L14.0379 4.0526C14.2803 4.1565 14.2803 4.50019 14.0379 4.60409L12.3918 5.30958C12.3209 5.33993 12.2645 5.39635 12.2342 5.46715Z" stroke="white" stroke-width="1.3" stroke-linecap="round"/>
</svg>
