<svg width="13" height="14" viewBox="0 0 13 14" fill="none" xmlns="http://www.w3.org/2000/svg">
<path d="M2.9599 14C2.62579 14 2.35619 13.8768 2.18038 13.6438C1.99967 13.4045 1.95256 13.0703 2.05106 12.7273L2.44661 11.3493C2.47816 11.2396 2.4562 11.1215 2.38741 11.0302C2.31862 10.9391 2.21098 10.8855 2.09666 10.8855H0.959361C0.625067 10.8855 0.355469 10.7625 0.179748 10.5295C-0.000961239 10.29 -0.0480726 9.95583 0.0505008 9.6128L1.40938 4.90034L1.55941 4.38258C1.76109 3.67999 2.49662 3.10898 3.19926 3.10898H4.5601C4.7225 3.10898 4.86535 3.00156 4.91005 2.84567L5.36009 1.27822C5.56157 0.576338 6.29711 0.0053272 6.99974 0.0053272L9.91012 0.000181816L12.0407 0C12.3749 0 12.6445 0.123053 12.8202 0.355995C13.0009 0.595338 13.0481 0.929497 12.9496 1.27253L12.3403 3.39485C12.1389 4.09655 11.4034 4.66738 10.7007 4.66738L7.78388 4.67288H6.4235C6.26128 4.67288 6.11862 4.78012 6.07364 4.93584L4.93936 8.86654C4.90763 8.97645 4.92959 9.09488 4.99856 9.18614C5.06735 9.27722 5.17499 9.33084 5.28922 9.33084C5.28949 9.33084 7.21671 9.32712 7.21671 9.32712H9.34098C9.67518 9.32712 9.94478 9.45017 10.1205 9.68311C10.3012 9.92264 10.3483 10.2568 10.2497 10.5998L9.64052 12.7218C9.43912 13.4237 8.70358 13.9945 8.00095 13.9945L5.08417 14H2.9599Z" fill="white"/>
</svg>
