<svg width="16" height="16" viewBox="0 0 16 16" fill="none" xmlns="http://www.w3.org/2000/svg">
<path d="M14 9.99996L11.9427 7.94263C11.6926 7.69267 11.3536 7.55225 11 7.55225C10.6464 7.55225 10.3074 7.69267 10.0573 7.94263L9 9M8 14H12.6667C13.403 14 14 13.403 14 12.6667V3.33333C14 2.59695 13.403 2 12.6667 2H3.33333C2.59695 2 2 2.59695 2 3.33333V8" stroke="white" stroke-width="1.3" stroke-linecap="round" stroke-linejoin="round"/>
<path d="M5.5134 12.671L4.77575 14.3921C4.67186 14.6346 4.32817 14.6346 4.22427 14.3921L3.48662 12.671C3.45628 12.6002 3.39986 12.5437 3.32905 12.5134L1.60788 11.7757C1.36545 11.6718 1.36545 11.3282 1.60788 11.2243L3.32905 10.4866C3.39986 10.4563 3.45628 10.3998 3.48662 10.329L4.22427 8.60787C4.32817 8.36544 4.67186 8.36544 4.77576 8.60787L5.5134 10.329C5.54375 10.3998 5.60016 10.4563 5.67097 10.4866L7.39214 11.2243C7.63458 11.3282 7.63458 11.6718 7.39214 11.7757L5.67097 12.5134C5.60016 12.5437 5.54375 12.6002 5.5134 12.671Z" stroke="white" stroke-width="1.3" stroke-linecap="round"/>
<path d="M5 5H5.0001" stroke="white" stroke-width="2" stroke-linecap="round"/>
</svg>
